# xmcd
#
# Track frame offsets: 
#        150
#        14754
#        26170
#        39034
#        57755
#        68364
#        77416
#        89345
#        101831
#        116630
#        125282
#        133892
#        149722
#        160732
#        173799
#        186110
#        196887
#        208820
#
# Disc length: 2933 seconds
#
# Revision: 0
# Processed by: cddbd v1.5.2PL0 Copyright (c) Steve Scherf et al.
# Submitted via: ExactAudioCopyFreeDBPlugin 1.0
#
DISCID=f90b7312
DTITLE=Various Artist - It's A Country Christmas
DYEAR=1999
DGENRE=Country
TTITLE0=Jeannie C Riley - Silver Bells
TTITLE1=Skeeter Davis - Santa Claus Is Coming To Town
TTITLE2=Boxcar Willie - White Christmas
TTITLE3=Rosemary Clooney - Have Yourself A Merry Little Christmas
TTITLE4=Kitty Wells - Christmas
TTITLE5=Donna Fargo - Rocking Around The Christmas Tree
TTITLE6=Rosemary Clooney - Suzy Snowflake
TTITLE7=Boxcar Willie - Blue Christmas
TTITLE8=Rosemary Clooney - The Christmas Song
TTITLE9=Kitty Wells - Santa's On His Way
TTITLE10=Gene Autry - Frosty The Snowman
TTITLE11=Boxcar Willie - Don't It Make You Wanna Be a Kid Again?
TTITLE12=Rosemary Clooney - Rudolph The Red Nosed Reindeer
TTITLE13=Kitty Wells - Christmas Ain't Like Christmas Anymore
TTITLE14=Rosemary Clooney - It Came Upon A Midnight Clear
TTITLE15=Jeannie C Riley - Away In A Manger
TTITLE16=Donna Fargo - Jingle Bells
TTITLE17=Rosemary Clooney - The Little Drummer Boy
EXTD=
EXTT0=
EXTT1=
EXTT2=
EXTT3=
EXTT4=
EXTT5=
EXTT6=
EXTT7=
EXTT8=
EXTT9=
EXTT10=
EXTT11=
EXTT12=
EXTT13=
EXTT14=
EXTT15=
EXTT16=
EXTT17=
PLAYORDER=
